# xmcd
#
# Track frame offsets:
#	150
#	32671
#	43619
#	59480
#	69124
#	85984
#	98532
#	114774
#	126684
#	138571
#	156508
#
# Disc length: 2339 seconds
#
# Revision: 0
# Processed by: cddbd v1.5.2PL0 Copyright (c) Steve Scherf et al.
# Submitted via: audiograbber 1.83.01
#
DISCID=9409210b
DTITLE=Taste - Moving on
DYEAR=1967
DGENRE=
TTITLE0=Sugar mama
TTITLE1=I'm moving on
TTITLE2=Same old story
TTITLE3=If the day was any longer
TTITLE4=Eat my words
TTITLE5=What's going on
TTITLE6=Railway and gun
TTITLE7=If i don't sing i'll cry
TTITLE8=Morning sun
TTITLE9=Born on the wrong side of time
TTITLE10=Leaving blues
EXTD=digitalized and remastered from vinyl-record
EXTT0=
EXTT1=
EXTT2=
EXTT3=
EXTT4=
EXTT5=
EXTT6=
EXTT7=
EXTT8=
EXTT9=
EXTT10=
PLAYORDER=
